<svg width="18" height="18" viewBox="0 0 18 18" fill="none" xmlns="http://www.w3.org/2000/svg">
<g clip-path="url(#clip0_1900_1888)">
<path d="M13.3363 16.8153L14.007 16.1446L14.6776 16.8153L15.3483 17.486L16.019 16.8153V5.67689C16.019 5.03505 15.4998 4.51221 14.8543 4.51221H5.47559C6.11742 4.51221 6.64027 5.03145 6.64027 5.67689V16.8117L7.31095 17.4823L7.98163 16.8117L8.65232 16.141L9.323 16.8117L9.99368 17.4823L10.6644 16.8117L11.335 16.141L12.0057 16.8117L12.6764 17.4823L13.3363 16.8153Z" fill="#A7A9AC"/>
<path d="M8.30665 7.36134H14.4077C14.588 7.36134 14.7358 7.2135 14.7358 7.03321C14.7358 6.85292 14.588 6.70508 14.4077 6.70508H8.30665C8.12635 6.70508 7.97852 6.85292 7.97852 7.03321C7.97852 7.2135 8.12635 7.36134 8.30665 7.36134Z" fill="white"/>
<path d="M8.30665 9.10255H12.7382C12.9185 9.10255 13.0663 8.95471 13.0663 8.77442C13.0663 8.59413 12.9185 8.44629 12.7382 8.44629H8.30665C8.12635 8.44629 7.97852 8.59413 7.97852 8.77442C7.97852 8.95832 8.12635 9.10255 8.30665 9.10255Z" fill="white"/>
<path d="M8.30665 10.7002H14.4077C14.588 10.7002 14.7358 10.5524 14.7358 10.3721C14.7358 10.1918 14.588 10.0439 14.4077 10.0439H8.30665C8.12635 10.0439 7.97852 10.1918 7.97852 10.3721C7.97852 10.556 8.12635 10.7002 8.30665 10.7002Z" fill="white"/>
<path d="M8.88718 11.8647H8.30665C8.12635 11.8647 7.97852 12.0126 7.97852 12.1929C7.97852 12.3732 8.12635 12.521 8.30665 12.521H8.88718C9.06747 12.521 9.21531 12.3732 9.21531 12.1929C9.21531 12.0126 9.06747 11.8647 8.88718 11.8647Z" fill="white"/>
<path d="M8.88718 13.4624H8.30665C8.12635 13.4624 7.97852 13.6102 7.97852 13.7905C7.97852 13.9708 8.12635 14.1187 8.30665 14.1187H8.88718C9.06747 14.1187 9.21531 13.9708 9.21531 13.7905C9.21171 13.6066 9.06747 13.4624 8.88718 13.4624Z" fill="white"/>
<path d="M14.4086 11.8647H10.1934C10.0131 11.8647 9.86523 12.0126 9.86523 12.1929C9.86523 12.3732 10.0131 12.521 10.1934 12.521H14.4086C14.5889 12.521 14.7367 12.3732 14.7367 12.1929C14.7367 12.0126 14.5889 11.8647 14.4086 11.8647Z" fill="white"/>
<path d="M13.0636 13.7866C13.0636 13.6063 12.9158 13.4585 12.7355 13.4585H10.1934C10.0131 13.4585 9.86523 13.6063 9.86523 13.7866C9.86523 13.9669 10.0131 14.1148 10.1934 14.1148H12.7355C12.9158 14.1148 13.0636 13.9669 13.0636 13.7866Z" fill="white"/>
<path d="M12.4357 17.7171C12.5619 17.8433 12.771 17.8433 12.8973 17.7171L14.0078 16.6065L15.1184 17.7171C15.1833 17.782 15.2663 17.8144 15.3492 17.8144C15.4321 17.8144 15.5151 17.782 15.58 17.7171L16.2507 17.0464C16.312 16.9851 16.348 16.9021 16.348 16.8156V5.67721C16.348 4.85509 15.6809 4.18801 14.8588 4.18801H12.3528V0.513677C12.3528 0.333386 12.2049 0.185547 12.0246 0.185547H1.98243C1.80214 0.185547 1.6543 0.333386 1.6543 0.513677V11.6485C1.6543 12.4706 2.32137 13.1377 3.1435 13.1377H5.03295C5.21324 13.1377 5.36108 12.9898 5.36108 12.8095C5.36108 12.6292 5.21324 12.4814 5.03295 12.4814H4.37669C4.53895 12.2434 4.63631 11.9549 4.63631 11.6448V5.67721C4.63631 5.21567 5.01132 4.84066 5.47286 4.84066C5.93441 4.84066 6.30941 5.21567 6.30941 5.67721V16.812C6.30941 16.8336 6.31302 16.8553 6.31663 16.8769C6.32023 16.8913 6.32384 16.9021 6.32744 16.9166C6.33105 16.9238 6.33105 16.931 6.33465 16.9382C6.34187 16.9526 6.34908 16.967 6.35629 16.9779C6.3599 16.9815 6.35989 16.9887 6.3635 16.9923C6.37432 17.0103 6.38874 17.0283 6.40316 17.0428L7.07385 17.7134C7.20005 17.8397 7.40919 17.8397 7.53539 17.7134L8.64599 16.6029L9.75658 17.7134C9.88278 17.8397 10.0919 17.8397 10.2181 17.7134L11.3287 16.6029L12.4357 17.7171ZM3.98366 5.67721V11.6485C3.98366 12.11 3.60865 12.485 3.14711 12.485C2.68556 12.485 2.31056 12.11 2.31056 11.6485V0.838201H11.7001V4.18801H5.47286C4.65074 4.18801 3.98366 4.85509 3.98366 5.67721ZM9.98735 17.0211L8.87676 15.9105C8.81185 15.8456 8.72892 15.8132 8.64599 15.8132C8.56305 15.8132 8.48012 15.8456 8.41521 15.9105L7.30462 17.0211L6.96207 16.6786V5.67721C6.96207 5.63034 6.95846 5.58346 6.95486 5.54019C6.95486 5.52577 6.95125 5.51495 6.95125 5.50053C6.94764 5.46808 6.94404 5.43562 6.93683 5.40317C6.93322 5.38875 6.93322 5.37793 6.92961 5.36351C6.9224 5.32384 6.91159 5.28057 6.89716 5.24091C6.89716 5.2373 6.89716 5.2373 6.89356 5.2337C6.87913 5.19043 6.86471 5.15076 6.84668 5.1111C6.84307 5.10028 6.83586 5.08947 6.83226 5.07504C6.81783 5.0462 6.80702 5.01735 6.78899 4.9885C6.78178 4.97768 6.77817 4.96687 6.77096 4.95244C6.75293 4.91999 6.73129 4.88393 6.70966 4.85148C6.70605 4.84787 6.70605 4.84427 6.70245 4.84066C6.70245 4.84066 6.70245 4.84066 6.70245 4.83706H14.848C15.3095 4.83706 15.6845 5.21206 15.6845 5.67361V16.6786L15.342 17.0211L14.2314 15.9105C14.1052 15.7843 13.8961 15.7843 13.7699 15.9105L12.6593 17.0211L11.5595 15.9141C11.4333 15.7879 11.2241 15.7879 11.0979 15.9141L9.98735 17.0211Z" fill="white"/>
</g>
<defs>
<clipPath id="clip0_1900_1888">
<rect width="17.6289" height="17.6289" fill="white" transform="translate(0.185547 0.185547)"/>
</clipPath>
</defs>
</svg>
