<svg width="18" height="18" viewBox="0 0 18 18" fill="none" xmlns="http://www.w3.org/2000/svg">
<g clip-path="url(#clip0_1900_1880)">
<path d="M17.0796 0.91985C17.0796 0.91985 12.2844 0.583217 10.4687 2.38892C10.4516 2.416 7.53058 5.32707 7.53058 5.32707L3.8579 6.0616L1.6543 7.53067L7.53058 10.4688L10.4687 16.3451L11.9378 14.1415L12.6723 10.4688C12.6723 10.4688 15.5834 7.54777 15.6105 7.53067C17.4162 5.71499 17.0796 0.91985 17.0796 0.91985ZM12.6723 6.0616C12.2665 6.0616 11.9378 5.7329 11.9378 5.32707C11.9378 4.92123 12.2665 4.59253 12.6723 4.59253C13.0782 4.59253 13.4069 4.92123 13.4069 5.32707C13.4069 5.7329 13.0782 6.0616 12.6723 6.0616ZM5.32698 12.6724C4.59244 11.9379 3.12337 11.9379 2.38883 12.6724C1.6543 13.407 1.6543 16.3451 1.6543 16.3451C1.6543 16.3451 4.59244 16.3451 5.32698 15.6106C6.06151 14.876 6.06151 13.407 5.32698 12.6724Z" stroke="white" stroke-width="1.25"/>
</g>
<defs>
<clipPath id="clip0_1900_1880">
<rect width="17.6289" height="17.6289" fill="white" transform="translate(0.185547 0.185547)"/>
</clipPath>
</defs>
</svg>
