<svg width="18" height="18" viewBox="0 0 18 18" fill="none" xmlns="http://www.w3.org/2000/svg">
<path fill-rule="evenodd" clip-rule="evenodd" d="M11.8125 4.50009V7.9364L15.1875 11.5926V14.6251L11.1375 12.9376H10.623C10.6864 13.2909 10.7357 13.7867 10.6065 14.2225C10.4744 14.6678 10.1161 15.1662 9.8517 15.5016C9.7098 15.6817 9.57502 15.8391 9.47595 15.9514C9.42622 16.0077 9.38505 16.0531 9.35595 16.0848C9.3414 16.1007 9.32985 16.1131 9.32175 16.1219L9.31215 16.1322L9.30938 16.1351L9.30847 16.136L8.8761 16.5933L8.4699 16.1134L8.46863 16.112L8.46608 16.1089L8.4573 16.0984C8.44987 16.0895 8.43937 16.0769 8.42625 16.0608C8.4 16.0287 8.36303 15.9829 8.31848 15.9261C8.22983 15.813 8.1096 15.6543 7.98442 15.4727C7.75252 15.1362 7.4366 14.6281 7.34636 14.1717C7.26337 13.752 7.34917 13.2828 7.44151 12.9376H6.8625L2.8125 14.6251V11.5926L6.1875 7.9364V4.50009C6.1875 4.01676 6.40526 3.6009 6.65881 3.27735C6.91433 2.95125 7.24113 2.67354 7.54515 2.45345C7.85235 2.23112 8.1561 2.05343 8.38125 1.93191C8.4945 1.8708 8.58937 1.82304 8.65695 1.79012C8.69077 1.77364 8.71785 1.76083 8.73705 1.75188L8.75993 1.74134L8.76667 1.73828L8.76877 1.7373L8.77012 1.7367L9 1.63379L9.2304 1.73695L9.23123 1.7373L9.23333 1.73828L9.24007 1.74134L9.26295 1.75188C9.28215 1.76083 9.30923 1.77364 9.34305 1.79012C9.41063 1.82304 9.5055 1.8708 9.61875 1.93191C9.8439 2.05343 10.1477 2.23112 10.4549 2.45345C10.7589 2.67354 11.0857 2.95125 11.3412 3.27735C11.5948 3.6009 11.8125 4.01676 11.8125 4.50009ZM8.6172 12.9376C8.59688 12.997 8.57595 13.0619 8.55585 13.1302C8.4594 13.4587 8.41312 13.767 8.44995 13.9535C8.49007 14.1561 8.67465 14.4917 8.91075 14.8343L8.92672 14.8574C8.94045 14.8403 8.95425 14.8229 8.96813 14.8053C9.23888 14.4617 9.46448 14.1165 9.52793 13.9026C9.58493 13.7106 9.56797 13.4025 9.50497 13.0793C9.49537 13.0299 9.4851 12.9825 9.47475 12.9376H8.6172ZM11.8125 12.0001V9.59502L14.0625 12.0325V12.9376L11.8125 12.0001ZM10.6875 4.50009V11.8126H7.3125V4.50009C7.3125 4.36211 7.376 4.18605 7.54433 3.97124C7.71068 3.75896 7.9464 3.55184 8.20485 3.36476C8.46015 3.17992 8.7189 3.0281 8.91562 2.92191C8.9454 2.90583 8.9736 2.89089 9 2.87711C9.0264 2.89089 9.0546 2.90583 9.08438 2.92191C9.2811 3.0281 9.53985 3.17992 9.79515 3.36476C10.0536 3.55184 10.2893 3.75896 10.4557 3.97124C10.624 4.18605 10.6875 4.36211 10.6875 4.50009ZM6.1875 9.59502V12.0001L3.9375 12.9376V12.0325L6.1875 9.59502Z" fill="#81FBA5"/>
</svg>
