<svg width="18" height="18" viewBox="0 0 18 18" fill="none" xmlns="http://www.w3.org/2000/svg">
<path fill-rule="evenodd" clip-rule="evenodd" d="M9.01903 2.38916C6.9849 2.38916 5.33594 4.03348 5.33594 6.06184C5.33594 8.09019 6.9849 9.73452 9.01903 9.73452C11.0531 9.73452 12.7021 8.09019 12.7021 6.06184C12.7021 4.03348 11.0531 2.38916 9.01903 2.38916ZM6.80916 6.06184C6.80916 7.27886 7.79852 8.26545 9.01903 8.26545C10.2395 8.26545 11.2288 7.27886 11.2288 6.06184C11.2288 4.84482 10.2395 3.85823 9.01903 3.85823C7.79852 3.85823 6.80916 4.84482 6.80916 6.06184Z" fill="white"/>
<path fill-rule="evenodd" clip-rule="evenodd" d="M9.01903 8.26562C12.5117 8.26562 15.3736 10.9589 15.6299 14.3765C15.5173 15.0763 14.9089 15.611 14.1753 15.611H14.1231H3.91496H3.86275C3.12916 15.611 2.52081 15.0763 2.4082 14.3765C2.66448 10.9589 5.5263 8.26562 9.01903 8.26562ZM3.91496 14.1419H14.1231C13.7657 11.6501 11.6166 9.7347 9.01903 9.7347C6.42136 9.7347 4.2724 11.6501 3.91496 14.1419ZM14.1753 14.8595V14.8934C14.1753 14.8878 14.1753 14.8821 14.1753 14.8764C14.1753 14.8708 14.1753 14.8651 14.1753 14.8595Z" fill="white"/>
</svg>
