<svg width="18" height="18" viewBox="0 0 18 18" fill="none" xmlns="http://www.w3.org/2000/svg">
<g clip-path="url(#clip0_2211_44720)">
<path d="M4.5 0H10.6875V1.125H4.5C4.20163 1.125 3.91548 1.24353 3.7045 1.4545C3.49353 1.66548 3.375 1.95163 3.375 2.25V15.75C3.375 16.0484 3.49353 16.3345 3.7045 16.5455C3.91548 16.7565 4.20163 16.875 4.5 16.875H13.5C13.7984 16.875 14.0845 16.7565 14.2955 16.5455C14.5065 16.3345 14.625 16.0484 14.625 15.75V5.0625H15.75V15.75C15.75 16.3467 15.5129 16.919 15.091 17.341C14.669 17.7629 14.0967 18 13.5 18H4.5C3.90326 18 3.33097 17.7629 2.90901 17.341C2.48705 16.919 2.25 16.3467 2.25 15.75V2.25C2.25 1.65326 2.48705 1.08097 2.90901 0.65901C3.33097 0.237053 3.90326 0 4.5 0V0Z" fill="#81FBA5"/>
<path d="M10.6875 3.375V0L15.75 5.0625H12.375C11.9274 5.0625 11.4982 4.88471 11.1818 4.56824C10.8653 4.25178 10.6875 3.82255 10.6875 3.375V3.375Z" fill="#81FBA5"/>
<path fill-rule="evenodd" clip-rule="evenodd" d="M5.625 12.9375C5.625 12.7883 5.68426 12.6452 5.78975 12.5398C5.89524 12.4343 6.03832 12.375 6.1875 12.375H8.4375C8.58668 12.375 8.72976 12.4343 8.83525 12.5398C8.94074 12.6452 9 12.7883 9 12.9375C9 13.0867 8.94074 13.2298 8.83525 13.3352C8.72976 13.4407 8.58668 13.5 8.4375 13.5H6.1875C6.03832 13.5 5.89524 13.4407 5.78975 13.3352C5.68426 13.2298 5.625 13.0867 5.625 12.9375ZM5.625 10.6875C5.625 10.5383 5.68426 10.3952 5.78975 10.2898C5.89524 10.1843 6.03832 10.125 6.1875 10.125H11.8125C11.9617 10.125 12.1048 10.1843 12.2102 10.2898C12.3157 10.3952 12.375 10.5383 12.375 10.6875C12.375 10.8367 12.3157 10.9798 12.2102 11.0852C12.1048 11.1907 11.9617 11.25 11.8125 11.25H6.1875C6.03832 11.25 5.89524 11.1907 5.78975 11.0852C5.68426 10.9798 5.625 10.8367 5.625 10.6875ZM5.625 8.4375C5.625 8.28832 5.68426 8.14524 5.78975 8.03975C5.89524 7.93426 6.03832 7.875 6.1875 7.875H11.8125C11.9617 7.875 12.1048 7.93426 12.2102 8.03975C12.3157 8.14524 12.375 8.28832 12.375 8.4375C12.375 8.58668 12.3157 8.72976 12.2102 8.83525C12.1048 8.94074 11.9617 9 11.8125 9H6.1875C6.03832 9 5.89524 8.94074 5.78975 8.83525C5.68426 8.72976 5.625 8.58668 5.625 8.4375Z" fill="#81FBA5"/>
</g>
<defs>
<clipPath id="clip0_2211_44720">
<rect width="18" height="18" fill="white"/>
</clipPath>
</defs>
</svg>
