<svg width="18" height="18" viewBox="0 0 18 18" fill="none" xmlns="http://www.w3.org/2000/svg">
<g clip-path="url(#clip0_1900_1836)">
<path d="M4.59228 0.185547H10.6522V1.28735H4.59228C4.30006 1.28735 4.01982 1.40343 3.81319 1.61006C3.60656 1.81669 3.49048 2.09694 3.49048 2.38915V15.6108C3.49048 15.903 3.60656 16.1833 3.81319 16.3899C4.01982 16.5965 4.30006 16.7126 4.59228 16.7126H13.4067C13.6989 16.7126 13.9792 16.5965 14.1858 16.3899C14.3924 16.1833 14.5085 15.903 14.5085 15.6108V5.14366H15.6103V15.6108C15.6103 16.1952 15.3782 16.7557 14.9649 17.169C14.5516 17.5822 13.9911 17.8144 13.4067 17.8144H4.59228C4.00785 17.8144 3.44735 17.5822 3.03409 17.169C2.62084 16.7557 2.38867 16.1952 2.38867 15.6108V2.38915C2.38867 1.80472 2.62084 1.24423 3.03409 0.830969C3.44735 0.417712 4.00785 0.185547 4.59228 0.185547V0.185547Z" fill="white"/>
<path d="M10.6523 3.49096V0.185547L15.6105 5.14366H12.305C11.8667 5.14366 11.4464 4.96954 11.1364 4.6596C10.8265 4.34966 10.6523 3.92928 10.6523 3.49096Z" fill="white"/>
<path fill-rule="evenodd" clip-rule="evenodd" d="M5.69434 12.8561C5.69434 12.71 5.75238 12.5698 5.85569 12.4665C5.95901 12.3632 6.09913 12.3052 6.24524 12.3052H8.44885C8.59495 12.3052 8.73508 12.3632 8.83839 12.4665C8.94171 12.5698 8.99975 12.71 8.99975 12.8561C8.99975 13.0022 8.94171 13.1423 8.83839 13.2456C8.73508 13.3489 8.59495 13.407 8.44885 13.407H6.24524C6.09913 13.407 5.95901 13.3489 5.85569 13.2456C5.75238 13.1423 5.69434 13.0022 5.69434 12.8561ZM5.69434 10.6525C5.69434 10.5064 5.75238 10.3662 5.85569 10.2629C5.95901 10.1596 6.09913 10.1016 6.24524 10.1016H11.7543C11.9004 10.1016 12.0405 10.1596 12.1438 10.2629C12.2471 10.3662 12.3052 10.5064 12.3052 10.6525C12.3052 10.7986 12.2471 10.9387 12.1438 11.042C12.0405 11.1453 11.9004 11.2034 11.7543 11.2034H6.24524C6.09913 11.2034 5.95901 11.1453 5.85569 11.042C5.75238 10.9387 5.69434 10.7986 5.69434 10.6525ZM5.69434 8.44885C5.69434 8.30274 5.75238 8.16262 5.85569 8.0593C5.95901 7.95599 6.09913 7.89795 6.24524 7.89795H11.7543C11.9004 7.89795 12.0405 7.95599 12.1438 8.0593C12.2471 8.16262 12.3052 8.30274 12.3052 8.44885C12.3052 8.59496 12.2471 8.73508 12.1438 8.8384C12.0405 8.94171 11.9004 8.99975 11.7543 8.99975H6.24524C6.09913 8.99975 5.95901 8.94171 5.85569 8.8384C5.75238 8.73508 5.69434 8.59496 5.69434 8.44885Z" fill="white"/>
</g>
<defs>
<clipPath id="clip0_1900_1836">
<rect width="17.6289" height="17.6289" fill="white" transform="translate(0.185547 0.185547)"/>
</clipPath>
</defs>
</svg>
