<svg width="36" height="34" viewBox="0 0 36 34" fill="none" xmlns="http://www.w3.org/2000/svg">
<g clip-path="url(#clip0_2255_43247)">
<path d="M2.72165 28.4848L4.30928 31.227C4.63917 31.8044 5.1134 32.258 5.6701 32.5879L11.3402 22.7734H0C0 23.4126 0.164948 24.0518 0.494845 24.6291L2.72165 28.4848Z" fill="#0066DA"/>
<path d="M18 11.2265L12.3299 1.41211C11.7732 1.74201 11.299 2.19561 10.9691 2.77293L0.494845 20.9173C0.171016 21.4821 0.00043116 22.1218 0 22.7729H11.3402L18 11.2265Z" fill="#00AC47"/>
<path d="M30.335 32.5879C30.8917 32.258 31.3659 31.8044 31.6958 31.227L32.3556 30.093L35.5102 24.6291C35.8401 24.0518 36.0051 23.4126 36.0051 22.7734H24.6641L27.0773 27.5157L30.335 32.5879Z" fill="#EA4335"/>
<path d="M17.9982 11.2272L23.6683 1.41281C23.1116 1.08292 22.4725 0.917969 21.8127 0.917969H14.1838C13.524 0.917969 12.8848 1.10354 12.3281 1.41281L17.9982 11.2272Z" fill="#00832D"/>
<path d="M24.6616 22.7734H11.342L5.67188 32.5879C6.22858 32.9178 6.86775 33.0827 7.52755 33.0827H28.476C29.1358 33.0827 29.775 32.8971 30.3317 32.5879L24.6616 22.7734Z" fill="#2684FC"/>
<path d="M30.268 11.8451L25.0309 2.77293C24.701 2.19561 24.2268 1.74201 23.6701 1.41211L18 11.2265L24.6598 22.7729H35.9794C35.9794 22.1338 35.8144 21.4946 35.4845 20.9173L30.268 11.8451Z" fill="#FFBA00"/>
</g>
<defs>
<clipPath id="clip0_2255_43247">
<rect width="36" height="32.1649" fill="white" transform="translate(0 0.917969)"/>
</clipPath>
</defs>
</svg>
