<svg width="18" height="18" viewBox="0 0 18 18" fill="none" xmlns="http://www.w3.org/2000/svg">
<path fill-rule="evenodd" clip-rule="evenodd" d="M5.60225 4.5C5.51795 4.50012 5.43475 4.51919 5.3588 4.5558C5.28286 4.59241 5.21611 4.64562 5.16351 4.7115L1.73225 9H6.74975C6.89894 9 7.04201 9.05926 7.1475 9.16475C7.25299 9.27024 7.31225 9.41332 7.31225 9.5625C7.31225 10.0101 7.49004 10.4393 7.80651 10.7557C8.12298 11.0722 8.5522 11.25 8.99975 11.25C9.44731 11.25 9.87653 11.0722 10.193 10.7557C10.5095 10.4393 10.6873 10.0101 10.6873 9.5625C10.6873 9.41332 10.7465 9.27024 10.852 9.16475C10.9575 9.05926 11.1006 9 11.2498 9H16.2673L12.836 4.7115C12.7834 4.64562 12.7167 4.59241 12.6407 4.5558C12.5648 4.51919 12.4816 4.50012 12.3973 4.5H5.60225ZM4.286 4.00837C4.44394 3.81094 4.64422 3.65152 4.87205 3.54189C5.09987 3.43226 5.34942 3.37523 5.60225 3.375H12.3973C12.6501 3.37523 12.8996 3.43226 13.1275 3.54189C13.3553 3.65152 13.5556 3.81094 13.7135 4.00837L17.876 9.2115C17.923 9.27012 17.9577 9.33755 17.9782 9.40981C17.9987 9.48207 18.0045 9.55771 17.9953 9.63225L17.5565 13.1467C17.5055 13.555 17.3071 13.9305 16.9986 14.2028C16.6901 14.475 16.2928 14.6252 15.8814 14.625H2.11813C1.7067 14.6252 1.30939 14.475 1.00091 14.2028C0.692426 13.9305 0.494022 13.555 0.443005 13.1467L0.00425485 9.63225C-0.00496593 9.55771 0.000835326 9.48207 0.0213164 9.40981C0.0417975 9.33755 0.0765435 9.27012 0.123505 9.2115L4.286 4.00837V4.00837Z" fill="#81FBA5"/>
</svg>
