<svg width="18" height="18" viewBox="0 0 18 18" fill="none" xmlns="http://www.w3.org/2000/svg">
<g clip-path="url(#clip0_1900_1846)">
<path fill-rule="evenodd" clip-rule="evenodd" d="M5.67229 4.59253C5.58972 4.59264 5.50823 4.61132 5.43386 4.64718C5.35948 4.68303 5.29411 4.73514 5.24259 4.79967L1.88208 8.99974H6.79613C6.94224 8.99974 7.08236 9.05778 7.18568 9.1611C7.28899 9.26441 7.34703 9.40454 7.34703 9.55064C7.34703 9.98897 7.52116 10.4093 7.8311 10.7193C8.14104 11.0292 8.56141 11.2034 8.99974 11.2034C9.43806 11.2034 9.85844 11.0292 10.1684 10.7193C10.4783 10.4093 10.6524 9.98897 10.6524 9.55064C10.6524 9.40454 10.7105 9.26441 10.8138 9.1611C10.9171 9.05778 11.0572 8.99974 11.2033 8.99974H16.1174L12.7569 4.79967C12.7054 4.73514 12.64 4.68303 12.5656 4.64718C12.4912 4.61132 12.4098 4.59264 12.3272 4.59253H5.67229ZM4.38318 4.11104C4.53786 3.91768 4.73401 3.76154 4.95714 3.65417C5.18027 3.5468 5.42467 3.49094 5.67229 3.49072H12.3272C12.5748 3.49094 12.8192 3.5468 13.0423 3.65417C13.2655 3.76154 13.4616 3.91768 13.6163 4.11104L17.693 9.20688C17.739 9.26429 17.773 9.33033 17.7931 9.4011C17.8131 9.47188 17.8188 9.54595 17.8098 9.61896L17.3801 13.061C17.3301 13.4608 17.1358 13.8286 16.8337 14.0952C16.5315 14.3619 16.1424 14.5089 15.7395 14.5088H2.26C1.85706 14.5089 1.46794 14.3619 1.16582 14.0952C0.863696 13.8286 0.669382 13.4608 0.619418 13.061L0.189714 9.61896C0.180683 9.54595 0.186365 9.47188 0.206424 9.4011C0.226483 9.33033 0.260512 9.26429 0.306505 9.20688L4.38318 4.11104Z" fill="white"/>
</g>
<defs>
<clipPath id="clip0_1900_1846">
<rect width="17.6289" height="17.6289" fill="white" transform="translate(0.185547 0.185547)"/>
</clipPath>
</defs>
</svg>
