<svg width="654" height="394" viewBox="0 0 654 394" fill="none" xmlns="http://www.w3.org/2000/svg">
<g clip-path="url(#clip0_1090_1506)">
<path d="M34.1221 392.332C34.0783 392.14 29.847 372.845 38.4884 356.819C47.1299 340.794 65.5758 333.727 65.7611 333.657L66.6041 333.341L66.8033 334.219C66.847 334.412 71.0783 353.707 62.4369 369.733C53.7959 385.758 35.3496 392.825 35.1643 392.895L34.3208 393.211L34.1221 392.332ZM65.448 335.485C61.7531 337.074 47.1705 344.03 39.8721 357.565C32.573 371.101 34.7751 387.109 35.4774 391.067C39.1707 389.481 53.7475 382.536 61.0532 368.987C68.352 355.451 66.1506 339.446 65.448 335.485Z" fill="#F1F1F1"/>
<path d="M55.8329 364.111C40.3038 373.454 34.323 392.012 34.323 392.012C34.323 392.012 53.5199 395.421 69.049 386.079C84.5781 376.736 90.5589 358.178 90.5589 358.178C90.5589 358.178 71.3619 354.769 55.8329 364.111Z" fill="#F1F1F1"/>
<path d="M291.002 214.338C291.238 213.116 291.204 211.856 290.902 210.649C290.599 209.441 290.035 208.314 289.25 207.348C288.465 206.382 287.477 205.599 286.357 205.056C285.237 204.513 284.011 204.221 282.766 204.203L275.575 186.118L263.519 187.808L274.033 213.204C274.141 215.298 275.013 217.279 276.484 218.773C277.955 220.266 279.922 221.169 282.014 221.308C284.105 221.448 286.176 220.816 287.832 219.531C289.489 218.246 290.616 216.399 291.002 214.338Z" fill="#9F616A"/>
<path d="M268.791 207.984L265.055 199.076L241.777 154.765L243.043 72.7742L243.286 72.742C258.181 70.774 268.259 139.406 268.681 142.328L283.389 192.63L286.89 203.717L268.791 207.984Z" fill="#81FBA5"/>
<path d="M233.022 380.875L244.34 380.874L249.724 337.219L233.02 337.219L233.022 380.875Z" fill="#9F616A"/>
<path d="M230.136 377.179L252.425 377.178H252.426C256.193 377.179 259.806 378.675 262.47 381.339C265.134 384.003 266.63 387.616 266.631 391.383V391.844L230.136 391.846L230.136 377.179Z" fill="#2F2E41"/>
<path d="M128.956 363.63L138.243 370.101L167.62 337.364L153.914 327.813L128.956 363.63Z" fill="#9F616A"/>
<path d="M128.7 358.948L146.988 371.692L146.989 371.692C150.079 373.846 152.188 377.14 152.85 380.848C153.512 384.557 152.675 388.376 150.521 391.467L150.257 391.846L120.315 370.982L128.7 358.948Z" fill="#2F2E41"/>
<path d="M226.802 370.613L226.313 288.718L219.192 237.224L205.915 282.509L205.889 282.546L157.775 352.397L139.053 342.912L139.155 342.668C140.299 339.947 167.259 276.032 174.506 276.032C175.139 276.076 175.773 275.966 176.354 275.711C176.935 275.455 177.445 275.063 177.84 274.567C179.967 271.727 178.235 265.7 178.217 265.639C176.143 257.037 181.358 254.108 182.397 253.619L185.191 195.939L185.481 195.959L261.23 201.272L258.052 273.388L251.216 367.873L250.981 367.9L226.802 370.613Z" fill="#2F2E41"/>
<path d="M262.387 214.053L262.06 214.026L180.594 207.46L180.795 180.505L184.782 110.124L184.805 110.075L201.043 74.8225L212.554 69.6102L229.348 68.7264L229.389 68.7367L244.715 72.5339L260.659 186.986L262.387 214.053Z" fill="#81FBA5"/>
<path d="M231.979 59.6918C242.373 54.0097 246.193 40.9772 240.511 30.5829C234.829 20.1885 221.797 16.3685 211.402 22.0506C201.008 27.7326 197.188 40.7652 202.87 51.1595C208.552 61.5538 221.584 65.3739 231.979 59.6918Z" fill="#9F616A"/>
<path d="M200.12 46.2554V37.8983C200.12 37.8983 193.38 29.9608 200.794 27.9614C200.794 27.9614 202.815 7.96679 220.338 17.2976C220.338 17.2976 244.6 13.2987 241.905 27.2949C241.905 27.2949 247.97 23.6409 245.948 32.9718L242.038 48.0021C242.038 48.0021 243.927 38.0735 237.861 36.7405L234.491 34.741C234.491 34.741 225.056 44.0718 210.903 32.7415C210.903 32.7415 204.837 31.2938 205.511 37.2922C206.185 43.2906 200.12 46.2554 200.12 46.2554Z" fill="#2F2E41"/>
<path d="M219.458 193.924C219.471 192.679 219.211 191.446 218.697 190.312C218.183 189.178 217.426 188.171 216.48 187.361C215.534 186.552 214.422 185.959 213.223 185.626C212.023 185.292 210.765 185.226 209.537 185.431L199.217 168.93L187.66 172.756L202.561 195.853C203.043 197.894 204.256 199.686 205.971 200.892C207.686 202.097 209.784 202.631 211.866 202.394C213.949 202.156 215.872 201.162 217.271 199.601C218.67 198.04 219.448 196.02 219.458 193.924Z" fill="#9F616A"/>
<path d="M192.803 188.722L174.133 150.817L174.15 150.724C174.225 150.305 181.74 108.576 187.488 93.2374C193.273 77.8019 201.19 74.7028 201.525 74.5784L201.692 74.5162L208.791 81.3259L198.957 146.967L209.557 178.624L192.803 188.722Z" fill="#81FBA5"/>
<path d="M654 -0.00012207H617.851V36.1496H654V-0.00012207Z" fill="#F1F1F1"/>
<path d="M371.089 140.669H334.939V176.819H371.089V140.669Z" fill="#F1F1F1"/>
<path d="M355.229 160.978H641.028V16.2938H355.229V160.978Z" fill="white"/>
<path d="M643.386 163.336H352.872V13.9363H643.386V163.336ZM357.587 158.621H638.671V18.6515H357.587V158.621Z" fill="#E5E5E5"/>
<path d="M609.424 67.0465H389.535V74.3387H609.424V67.0465Z" fill="#0B0B0B"/>
<path d="M609.424 84.7307H389.535V92.0229H609.424V84.7307Z" fill="#0B0B0B"/>
<path d="M609.424 110.842H568.56V117.171H609.424V110.842Z" fill="#81FBA5"/>
<path d="M300.2 393.18H0.785863C0.577439 393.18 0.377551 393.097 0.230173 392.95C0.0827955 392.802 0 392.602 0 392.394C0 392.185 0.0827955 391.986 0.230173 391.838C0.377551 391.691 0.577439 391.608 0.785863 391.608H300.2C300.408 391.608 300.608 391.691 300.755 391.838C300.903 391.986 300.986 392.185 300.986 392.394C300.986 392.602 300.903 392.802 300.755 392.95C300.608 393.097 300.408 393.18 300.2 393.18Z" fill="#CBCBCB"/>
</g>
<defs>
<clipPath id="clip0_1090_1506">
<rect width="654" height="393.212" fill="white"/>
</clipPath>
</defs>
</svg>
