<svg width="18" height="18" viewBox="0 0 18 18" fill="none" xmlns="http://www.w3.org/2000/svg">
<path d="M5.625 7.59375C6.075 7.59375 6.46875 7.9875 6.46875 8.4375C6.46875 8.8875 6.075 9.28125 5.625 9.28125C5.175 9.28125 4.78125 8.8875 4.78125 8.4375C4.78125 7.9875 5.175 7.59375 5.625 7.59375ZM12.9375 7.875H8.4375C8.1 7.875 7.875 8.1 7.875 8.4375C7.875 8.775 8.1 9 8.4375 9H12.9375C13.275 9 13.5 8.775 13.5 8.4375C13.5 8.1 13.275 7.875 12.9375 7.875ZM12.9375 11.25H8.4375C8.1 11.25 7.875 11.475 7.875 11.8125C7.875 12.15 8.1 12.375 8.4375 12.375H12.9375C13.275 12.375 13.5 12.15 13.5 11.8125C13.5 11.475 13.275 11.25 12.9375 11.25ZM5.625 10.9688C6.075 10.9688 6.46875 11.3625 6.46875 11.8125C6.46875 12.2625 6.075 12.6562 5.625 12.6562C5.175 12.6562 4.78125 12.2625 4.78125 11.8125C4.78125 11.3625 5.175 10.9688 5.625 10.9688ZM13.5 1.125H12.2625C12.0375 0.45 11.4187 0 10.6875 0H7.3125C6.58125 0 5.9625 0.45 5.7375 1.125H4.5C2.64375 1.125 1.125 2.64375 1.125 4.5V14.625C1.125 16.4812 2.64375 18 4.5 18H13.5C15.3562 18 16.875 16.4812 16.875 14.625V4.5C16.875 2.64375 15.3562 1.125 13.5 1.125ZM7.3125 1.125H10.6875C11.025 1.125 11.25 1.35 11.25 1.6875V2.8125C11.25 3.15 11.025 3.375 10.6875 3.375H7.3125C6.975 3.375 6.75 3.15 6.75 2.8125V1.6875C6.75 1.35 6.975 1.125 7.3125 1.125ZM15.75 14.625C15.75 15.8625 14.7375 16.875 13.5 16.875H4.5C3.2625 16.875 2.25 15.8625 2.25 14.625V4.5C2.25 3.2625 3.2625 2.25 4.5 2.25H5.625V2.8125C5.625 3.76875 6.35625 4.5 7.3125 4.5H10.6875C11.6438 4.5 12.375 3.76875 12.375 2.8125V2.25H13.5C14.7375 2.25 15.75 3.2625 15.75 4.5V14.625Z" fill="#81FBA5"/>
</svg>
