<svg width="18" height="18" viewBox="0 0 18 18" fill="none" xmlns="http://www.w3.org/2000/svg">
<g clip-path="url(#clip0_1900_1809)">
<path d="M5.69433 7.62272C6.13505 7.62272 6.52068 8.00836 6.52068 8.44908C6.52068 8.8898 6.13505 9.27543 5.69433 9.27543C5.2536 9.27543 4.86797 8.8898 4.86797 8.44908C4.86797 8.00836 5.2536 7.62272 5.69433 7.62272ZM12.8561 7.89818H8.44884C8.11829 7.89818 7.89793 8.11854 7.89793 8.44908C7.89793 8.77962 8.11829 8.99998 8.44884 8.99998H12.8561C13.1866 8.99998 13.407 8.77962 13.407 8.44908C13.407 8.11854 13.1866 7.89818 12.8561 7.89818ZM12.8561 11.2036H8.44884C8.11829 11.2036 7.89793 11.4239 7.89793 11.7545C7.89793 12.085 8.11829 12.3054 8.44884 12.3054H12.8561C13.1866 12.3054 13.407 12.085 13.407 11.7545C13.407 11.4239 13.1866 11.2036 12.8561 11.2036ZM5.69433 10.9281C6.13505 10.9281 6.52068 11.3138 6.52068 11.7545C6.52068 12.1952 6.13505 12.5808 5.69433 12.5808C5.2536 12.5808 4.86797 12.1952 4.86797 11.7545C4.86797 11.3138 5.2536 10.9281 5.69433 10.9281ZM13.407 1.28735H12.195C11.9746 0.626268 11.3686 0.185547 10.6524 0.185547H7.34703C6.63086 0.185547 6.02487 0.626268 5.80451 1.28735H4.59252C2.77454 1.28735 1.28711 2.77479 1.28711 4.59276V14.509C1.28711 16.327 2.77454 17.8144 4.59252 17.8144H13.407C15.2249 17.8144 16.7124 16.327 16.7124 14.509V4.59276C16.7124 2.77479 15.2249 1.28735 13.407 1.28735ZM7.34703 1.28735H10.6524C10.983 1.28735 11.2033 1.50771 11.2033 1.83825V2.94006C11.2033 3.2706 10.983 3.49096 10.6524 3.49096H7.34703C7.01649 3.49096 6.79613 3.2706 6.79613 2.94006V1.83825C6.79613 1.50771 7.01649 1.28735 7.34703 1.28735ZM15.6106 14.509C15.6106 15.721 14.6189 16.7126 13.407 16.7126H4.59252C3.38054 16.7126 2.38891 15.721 2.38891 14.509V4.59276C2.38891 3.38078 3.38054 2.38915 4.59252 2.38915H5.69433V2.94006C5.69433 3.87659 6.4105 4.59276 7.34703 4.59276H10.6524C11.589 4.59276 12.3051 3.87659 12.3051 2.94006V2.38915H13.407C14.6189 2.38915 15.6106 3.38078 15.6106 4.59276V14.509Z" fill="white"/>
</g>
<defs>
<clipPath id="clip0_1900_1809">
<rect width="17.6289" height="17.6289" fill="white" transform="translate(0.185547 0.185547)"/>
</clipPath>
</defs>
</svg>
