<svg width="18" height="18" viewBox="0 0 18 18" fill="none" xmlns="http://www.w3.org/2000/svg">
<g clip-path="url(#clip0_2211_47837)">
<path d="M8.29207 7.32681H14.5216C14.7056 7.32681 14.8566 7.17586 14.8566 6.99178C14.8566 6.80769 14.7056 6.65674 14.5216 6.65674H8.29207C8.10798 6.65674 7.95703 6.80769 7.95703 6.99178C7.95703 7.17586 8.10798 7.32681 8.29207 7.32681Z" fill="#81FBA5"/>
<path d="M8.29207 9.10513H12.8169C13.001 9.10513 13.152 8.95418 13.152 8.7701C13.152 8.58601 13.001 8.43506 12.8169 8.43506H8.29207C8.10798 8.43506 7.95703 8.58601 7.95703 8.7701C7.95703 8.95786 8.10798 9.10513 8.29207 9.10513Z" fill="#81FBA5"/>
<path d="M8.29207 10.736H14.5216C14.7056 10.736 14.8566 10.585 14.8566 10.401C14.8566 10.2169 14.7056 10.0659 14.5216 10.0659H8.29207C8.10798 10.0659 7.95703 10.2169 7.95703 10.401C7.95703 10.5887 8.10798 10.736 8.29207 10.736Z" fill="#81FBA5"/>
<path d="M8.88483 11.9253H8.29207C8.10798 11.9253 7.95703 12.0762 7.95703 12.2603C7.95703 12.4444 8.10798 12.5954 8.29207 12.5954H8.88483C9.06891 12.5954 9.21987 12.4444 9.21987 12.2603C9.21987 12.0762 9.06891 11.9253 8.88483 11.9253Z" fill="#81FBA5"/>
<path d="M8.88483 13.5562H8.29207C8.10798 13.5562 7.95703 13.7071 7.95703 13.8912C7.95703 14.0753 8.10798 14.2262 8.29207 14.2262H8.88483C9.06891 14.2262 9.21987 14.0753 9.21987 13.8912C9.21618 13.7034 9.06891 13.5562 8.88483 13.5562Z" fill="#81FBA5"/>
<path d="M14.5218 11.9253H10.2179C10.0338 11.9253 9.88281 12.0762 9.88281 12.2603C9.88281 12.4444 10.0338 12.5954 10.2179 12.5954H14.5218C14.7059 12.5954 14.8568 12.4444 14.8568 12.2603C14.8568 12.0762 14.7059 11.9253 14.5218 11.9253Z" fill="#81FBA5"/>
<path d="M13.1485 13.8873C13.1485 13.7032 12.9976 13.5522 12.8135 13.5522H10.2179C10.0338 13.5522 9.88281 13.7032 9.88281 13.8873C9.88281 14.0714 10.0338 14.2223 10.2179 14.2223H12.8135C12.9976 14.2223 13.1485 14.0714 13.1485 13.8873Z" fill="#81FBA5"/>
<path d="M12.5084 17.9006C12.6372 18.0295 12.8508 18.0295 12.9796 17.9006L14.1136 16.7666L15.2476 17.9006C15.3139 17.9669 15.3985 18 15.4832 18C15.5679 18 15.6526 17.9669 15.7189 17.9006L16.4037 17.2158C16.4663 17.1532 16.5031 17.0685 16.5031 16.9802V5.60728C16.5031 4.76785 15.8219 4.08673 14.9825 4.08673H12.4237V0.335038C12.4237 0.150951 12.2728 0 12.0887 0H1.83504C1.65095 0 1.5 0.150951 1.5 0.335038V11.7042C1.5 12.5437 2.18112 13.2248 3.02056 13.2248H4.94979C5.13387 13.2248 5.28482 13.0738 5.28482 12.8898C5.28482 12.7057 5.13387 12.5547 4.94979 12.5547H4.27971C4.44539 12.3117 4.54479 12.0172 4.54479 11.7006V5.60728C4.54479 5.13602 4.9277 4.75312 5.39896 4.75312C5.87022 4.75312 6.25312 5.13602 6.25312 5.60728V16.9765C6.25312 16.9986 6.2568 17.0207 6.26048 17.0427C6.26416 17.0575 6.26785 17.0685 6.27153 17.0832C6.27521 17.0906 6.27521 17.098 6.27889 17.1053C6.28626 17.1201 6.29362 17.1348 6.30098 17.1458C6.30466 17.1495 6.30466 17.1569 6.30835 17.1606C6.31939 17.179 6.33412 17.1974 6.34884 17.2121L7.03365 17.8969C7.16251 18.0258 7.37605 18.0258 7.50491 17.8969L8.63888 16.7629L9.77286 17.8969C9.90172 18.0258 10.1153 18.0258 10.2441 17.8969L11.3781 16.7629L12.5084 17.9006ZM3.8784 5.60728V11.7042C3.8784 12.1755 3.4955 12.5584 3.02424 12.5584C2.55298 12.5584 2.17008 12.1755 2.17008 11.7042V0.666394H11.7573V4.08673H5.39896C4.55952 4.08673 3.8784 4.76785 3.8784 5.60728ZM10.0085 17.19L8.87451 16.056C8.80824 15.9898 8.72356 15.9566 8.63888 15.9566C8.5542 15.9566 8.46952 15.9898 8.40325 16.056L7.26928 17.19L6.91951 16.8403V5.60728C6.91951 5.55942 6.91583 5.51156 6.91215 5.46738C6.91215 5.45265 6.90847 5.4416 6.90847 5.42688C6.90479 5.39374 6.9011 5.36061 6.89374 5.32747C6.89006 5.31274 6.89006 5.3017 6.88638 5.28697C6.87901 5.24647 6.86797 5.20229 6.85324 5.16179C6.85324 5.15811 6.85324 5.15811 6.84956 5.15443C6.83483 5.11025 6.82011 5.06975 6.8017 5.02925C6.79802 5.0182 6.79065 5.00716 6.78697 4.99243C6.77224 4.96298 6.7612 4.93352 6.74279 4.90407C6.73543 4.89303 6.73175 4.88198 6.72438 4.86725C6.70597 4.83412 6.68388 4.7973 6.66179 4.76416C6.65811 4.76048 6.65811 4.7568 6.65443 4.75312C6.65443 4.75312 6.65443 4.75312 6.65443 4.74944H14.9715C15.4427 4.74944 15.8256 5.13234 15.8256 5.6036V16.8403L15.4759 17.19L14.3419 16.056C14.213 15.9272 13.9995 15.9272 13.8706 16.056L12.7367 17.19L11.6137 16.0597C11.4849 15.9309 11.2713 15.9309 11.1425 16.0597L10.0085 17.19Z" fill="#81FBA5"/>
</g>
<defs>
<clipPath id="clip0_2211_47837">
<rect width="18" height="18" fill="white"/>
</clipPath>
</defs>
</svg>
