<svg width="24" height="24" viewBox="0 0 24 24" fill="none" xmlns="http://www.w3.org/2000/svg">
<path d="M7.5 10.125C8.1 10.125 8.625 10.65 8.625 11.25C8.625 11.85 8.1 12.375 7.5 12.375C6.9 12.375 6.375 11.85 6.375 11.25C6.375 10.65 6.9 10.125 7.5 10.125ZM17.25 10.5H11.25C10.8 10.5 10.5 10.8 10.5 11.25C10.5 11.7 10.8 12 11.25 12H17.25C17.7 12 18 11.7 18 11.25C18 10.8 17.7 10.5 17.25 10.5ZM17.25 15H11.25C10.8 15 10.5 15.3 10.5 15.75C10.5 16.2 10.8 16.5 11.25 16.5H17.25C17.7 16.5 18 16.2 18 15.75C18 15.3 17.7 15 17.25 15ZM7.5 14.625C8.1 14.625 8.625 15.15 8.625 15.75C8.625 16.35 8.1 16.875 7.5 16.875C6.9 16.875 6.375 16.35 6.375 15.75C6.375 15.15 6.9 14.625 7.5 14.625ZM18 1.5H16.35C16.05 0.6 15.225 0 14.25 0H9.75C8.775 0 7.95 0.6 7.65 1.5H6C3.525 1.5 1.5 3.525 1.5 6V19.5C1.5 21.975 3.525 24 6 24H18C20.475 24 22.5 21.975 22.5 19.5V6C22.5 3.525 20.475 1.5 18 1.5ZM9.75 1.5H14.25C14.7 1.5 15 1.8 15 2.25V3.75C15 4.2 14.7 4.5 14.25 4.5H9.75C9.3 4.5 9 4.2 9 3.75V2.25C9 1.8 9.3 1.5 9.75 1.5ZM21 19.5C21 21.15 19.65 22.5 18 22.5H6C4.35 22.5 3 21.15 3 19.5V6C3 4.35 4.35 3 6 3H7.5V3.75C7.5 5.025 8.475 6 9.75 6H14.25C15.525 6 16.5 5.025 16.5 3.75V3H18C19.65 3 21 4.35 21 6V19.5Z" fill="#81FBA5"/>
</svg>
