<svg width="18" height="18" viewBox="0 0 18 18" fill="none" xmlns="http://www.w3.org/2000/svg">
<g clip-path="url(#clip0_1900_1828)">
<path d="M11.2036 1.28711H6.79637C3.15105 1.28711 0.185547 4.25261 0.185547 7.89793V8.99974C0.185547 10.7092 0.868115 12.3602 2.07184 13.5954L2.39466 16.822C2.41423 17.0198 2.48695 17.2086 2.60513 17.3684C2.72331 17.5282 2.88254 17.653 3.06592 17.7297C3.24931 17.8063 3.45001 17.8319 3.64676 17.8037C3.84351 17.7755 4.02896 17.6946 4.18344 17.5696L6.61017 15.6106H11.2041C14.8495 15.6106 17.815 12.6451 17.815 8.99974V7.89793C17.815 4.25261 14.8489 1.28711 11.2036 1.28711ZM6.22068 14.5088L3.49096 16.7124L3.12791 13.0825C2.00628 12.0738 1.28735 10.6266 1.28735 8.99974V7.89793C1.28735 4.8553 3.75374 2.38891 6.79637 2.38891H11.2036C14.2462 2.38891 16.7126 4.8553 16.7126 7.89793V8.99974C16.7126 12.0424 14.2462 14.5088 11.2036 14.5088H6.22068Z" fill="white"/>
</g>
<defs>
<clipPath id="clip0_1900_1828">
<rect width="17.6289" height="17.6289" fill="white" transform="translate(0.185547 0.185547)"/>
</clipPath>
</defs>
</svg>
