<svg width="18" height="18" viewBox="0 0 18 18" fill="none" xmlns="http://www.w3.org/2000/svg">
<g clip-path="url(#clip0_2211_44189)">
<path d="M0.9375 7.875C0.9375 8.18565 1.18934 8.4375 1.5 8.4375C1.81066 8.4375 2.0625 8.18565 2.0625 7.875H0.9375ZM2.30513 11.7198C2.18625 11.4328 1.8572 11.2965 1.57019 11.4154C1.28318 11.5342 1.14689 11.8633 1.26577 12.1503L2.30513 11.7198ZM10.2991 16.3273L10.7057 15.6404L9.73748 15.0673L9.3309 15.7543L10.2991 16.3273ZM7.29434 15.6404L7.70093 16.3273L8.66902 15.7543L8.26245 15.0673L7.29434 15.6404ZM9.3309 15.7543C9.18638 15.9985 8.81362 15.9985 8.66902 15.7543L7.70093 16.3273C8.28113 17.3075 9.71887 17.3075 10.2991 16.3273L9.3309 15.7543ZM7.875 2.0625H10.125V0.9375H7.875V2.0625ZM15.9375 7.875V8.625H17.0625V7.875H15.9375ZM5.85187 13.6812C4.91029 13.6649 4.41692 13.6051 4.03019 13.4449L3.59968 14.4842C4.20341 14.7343 4.89103 14.7898 5.83249 14.806L5.85187 13.6812ZM1.26577 12.1503C1.70346 13.207 2.543 14.0465 3.59968 14.4842L4.03019 13.4449C3.24916 13.1213 2.62865 12.5008 2.30513 11.7198L1.26577 12.1503ZM15.9375 8.625C15.9375 9.50632 15.9372 10.1392 15.9032 10.6385C15.8694 11.1328 15.8045 11.4552 15.6949 11.7198L16.7342 12.1503C16.9101 11.7258 16.9879 11.2667 17.0255 10.7151C17.0628 10.1686 17.0625 9.49095 17.0625 8.625H15.9375ZM12.1675 14.806C13.109 14.7898 13.7966 14.7343 14.4003 14.4842L13.9698 13.4449C13.5831 13.6051 13.0897 13.6649 12.1481 13.6812L12.1675 14.806ZM15.6949 11.7198C15.3713 12.5008 14.7508 13.1213 13.9698 13.4449L14.4003 14.4842C15.457 14.0465 16.2965 13.207 16.7342 12.1503L15.6949 11.7198ZM10.125 2.0625C11.3634 2.0625 12.2527 2.06309 12.9464 2.12905C13.6318 2.19421 14.0678 2.31917 14.4155 2.53221L15.0033 1.57299C14.4491 1.23343 13.8206 1.08209 13.0529 1.0091C12.2936 0.936908 11.3417 0.9375 10.125 0.9375V2.0625ZM17.0625 7.875C17.0625 6.65836 17.0631 5.70637 16.9909 4.94708C16.9179 4.17942 16.7666 3.55084 16.427 2.99672L15.4678 3.58453C15.6808 3.93218 15.8058 4.36825 15.871 5.05357C15.9369 5.74725 15.9375 6.63657 15.9375 7.875H17.0625ZM14.4155 2.53221C14.8444 2.79504 15.205 3.15564 15.4678 3.58453L16.427 2.99672C16.0715 2.41646 15.5836 1.92858 15.0033 1.57299L14.4155 2.53221ZM7.875 0.9375C6.65836 0.9375 5.70637 0.936908 4.94708 1.0091C4.17942 1.08209 3.55084 1.23343 2.99672 1.57299L3.58454 2.53221C3.93218 2.31917 4.36826 2.19421 5.05357 2.12905C5.74725 2.06309 6.63657 2.0625 7.875 2.0625V0.9375ZM2.0625 7.875C2.0625 6.63657 2.06309 5.74725 2.12905 5.05357C2.19421 4.36825 2.31917 3.93218 2.53221 3.58453L1.57299 2.99672C1.23343 3.55084 1.08209 4.17942 1.0091 4.94708C0.936908 5.70637 0.9375 6.65836 0.9375 7.875H2.0625ZM2.99672 1.57299C2.41646 1.92858 1.92858 2.41646 1.57299 2.99672L2.53221 3.58453C2.79504 3.15564 3.15564 2.79504 3.58454 2.53221L2.99672 1.57299ZM8.26245 15.0673C8.1102 14.8101 7.97655 14.5831 7.84658 14.4047C7.70963 14.2169 7.55265 14.0478 7.33489 13.9211L6.76929 14.8936C6.80485 14.9143 6.85329 14.952 6.93739 15.0673C7.02842 15.1923 7.13126 15.3649 7.29434 15.6404L8.26245 15.0673ZM5.83249 14.806C6.16181 14.8117 6.3704 14.8159 6.52941 14.8334C6.67799 14.8499 6.73558 14.874 6.76929 14.8936L7.33489 13.9211C7.11532 13.7934 6.88684 13.7411 6.65323 13.7152C6.43004 13.6906 6.16031 13.6865 5.85187 13.6812L5.83249 14.806ZM10.7057 15.6404C10.8687 15.3649 10.9715 15.1923 11.0626 15.0673C11.1467 14.952 11.1951 14.9143 11.2307 14.8936L10.6651 13.9211C10.4474 14.0478 10.2903 14.2169 10.1534 14.4047C10.0234 14.5831 9.8898 14.8101 9.73748 15.0673L10.7057 15.6404ZM12.1481 13.6812C11.8397 13.6865 11.5699 13.6906 11.3467 13.7152C11.1131 13.7411 10.8847 13.7934 10.6651 13.9211L11.2307 14.8936C11.2644 14.874 11.322 14.8499 11.4706 14.8334C11.6296 14.8159 11.8382 14.8117 12.1675 14.806L12.1481 13.6812Z" fill="#81FBA5"/>
<path d="M6 8.25H6.00675M8.99325 8.25H9M11.9933 8.25H12" stroke="#81FBA5" stroke-width="1.5" stroke-linecap="round" stroke-linejoin="round"/>
</g>
<defs>
<clipPath id="clip0_2211_44189">
<rect width="18" height="18" fill="white"/>
</clipPath>
</defs>
</svg>
