<svg width="18" height="18" viewBox="0 0 18 18" fill="none" xmlns="http://www.w3.org/2000/svg">
<g clip-path="url(#clip0_1900_1862)">
<path d="M16.3868 4.72466C16.3778 4.2487 16.3691 3.79908 16.3691 3.36409C16.3691 3.02331 16.0929 2.74704 15.7521 2.74704C13.1131 2.74704 11.1039 1.98863 9.42915 0.360266C9.18956 0.127266 8.80831 0.127348 8.56881 0.360266C6.8942 1.98863 4.88531 2.74704 2.24654 2.74704C1.90576 2.74704 1.62948 3.02331 1.62948 3.36409C1.62948 3.79916 1.62093 4.24895 1.61179 4.72499C1.52722 9.15429 1.41137 15.2204 8.79687 17.7804C8.86236 17.8031 8.93065 17.8145 8.99893 17.8145C9.06722 17.8145 9.13559 17.8031 9.201 17.7804C16.5871 15.2204 16.4714 9.15405 16.3868 4.72466ZM8.99902 16.5426C2.66498 14.2416 2.76075 9.20111 2.84574 4.74852C2.85084 4.48129 2.85578 4.22229 2.85923 3.9684C5.33075 3.86407 7.30713 3.11513 8.99902 1.64127C10.6911 3.11513 12.6678 3.86415 15.1395 3.9684C15.1429 4.22221 15.1479 4.48105 15.153 4.74811C15.2379 9.20086 15.3335 14.2415 8.99902 16.5426Z" fill="white"/>
<path d="M11.1237 6.85648L8.14551 9.83455L6.87462 8.56366C6.63364 8.32276 6.24292 8.32276 6.00202 8.56366C5.76104 8.80473 5.76104 9.19536 6.00202 9.43634L7.70921 11.1435C7.82966 11.264 7.98763 11.3242 8.14551 11.3242C8.3034 11.3242 8.46136 11.264 8.58181 11.1435L11.9963 7.72916C12.2373 7.48818 12.2373 7.09746 11.9963 6.85656C11.7554 6.61558 11.3647 6.61549 11.1237 6.85648Z" fill="white"/>
</g>
<defs>
<clipPath id="clip0_1900_1862">
<rect width="17.6289" height="17.6289" fill="white" transform="translate(0.185547 0.185547)"/>
</clipPath>
</defs>
</svg>
