<svg width="18" height="18" viewBox="0 0 18 18" fill="none" xmlns="http://www.w3.org/2000/svg">
<path fill-rule="evenodd" clip-rule="evenodd" d="M6.12501 2.23988C5.09618 2.51646 4.07402 2.81729 3.05939 3.14212C2.96757 3.17047 2.8856 3.22414 2.82292 3.29698C2.76023 3.36981 2.71937 3.45886 2.70501 3.55387C2.10539 7.938 3.48914 11.1375 5.13951 13.2446C5.96751 14.3021 6.86414 15.0851 7.61114 15.5993C7.98576 15.8558 8.31539 16.0425 8.57526 16.1618C8.70576 16.2214 8.81151 16.2619 8.89251 16.2855C8.92823 16.297 8.96469 16.306 9.00164 16.3125C9.00951 16.3114 9.04439 16.3069 9.11076 16.2866C9.19176 16.2619 9.29751 16.2214 9.42801 16.1618C9.68676 16.0425 10.0186 15.8558 10.3921 15.5993C11.3288 14.942 12.1619 14.1484 12.8638 13.2446C14.5141 11.1375 15.8979 7.938 15.2983 3.55387C15.2839 3.45886 15.243 3.36981 15.1804 3.29698C15.1177 3.22414 15.0357 3.17047 14.9439 3.14212C14.2396 2.91712 13.0516 2.55038 11.8783 2.23988C10.679 1.92375 9.57539 1.6875 9.00164 1.6875C8.42789 1.6875 7.32539 1.92375 6.12501 2.23988ZM5.83701 1.15312C7.01039 0.842625 8.25576 0.5625 9.00164 0.5625C9.74639 0.5625 10.9929 0.842625 12.1663 1.15312C13.2128 1.43412 14.2526 1.73983 15.2848 2.07C15.8788 2.259 16.3265 2.77087 16.4131 3.402C17.0578 8.12362 15.5626 11.6224 13.7503 13.9376C12.9779 14.9312 12.061 15.8034 11.03 16.5251C10.6715 16.7762 10.2926 16.9968 9.89714 17.1844C9.59339 17.3239 9.26939 17.4375 9.00164 17.4375C8.73389 17.4375 8.40989 17.3239 8.10614 17.1844C7.71062 16.9969 7.33165 16.7764 6.97326 16.5251C5.9427 15.8033 5.02614 14.9311 4.25414 13.9376C2.43951 11.6224 0.945514 8.12362 1.59014 3.402C1.63324 3.09608 1.76209 2.80862 1.96178 2.57289C2.16148 2.33716 2.42384 2.16281 2.71851 2.07C3.75064 1.73984 4.79043 1.43413 5.83701 1.15312V1.15312Z" fill="#81FBA5"/>
<path fill-rule="evenodd" clip-rule="evenodd" d="M12.2115 6.91428C12.2638 6.96653 12.3054 7.0286 12.3338 7.09694C12.3621 7.16528 12.3767 7.23854 12.3767 7.31253C12.3767 7.38652 12.3621 7.45978 12.3338 7.52812C12.3054 7.59645 12.2638 7.65853 12.2115 7.71078L8.83646 11.0858C8.78421 11.1382 8.72214 11.1797 8.6538 11.2081C8.58546 11.2364 8.5122 11.251 8.43821 11.251C8.36422 11.251 8.29096 11.2364 8.22262 11.2081C8.15428 11.1797 8.09221 11.1382 8.03996 11.0858L6.35246 9.39828C6.30016 9.34598 6.25868 9.28389 6.23037 9.21556C6.20207 9.14723 6.1875 9.07399 6.1875 9.00003C6.1875 8.92607 6.20207 8.85283 6.23037 8.7845C6.25868 8.71617 6.30016 8.65408 6.35246 8.60178C6.40476 8.54948 6.46685 8.50799 6.53518 8.47969C6.60351 8.45139 6.67675 8.43682 6.75071 8.43682C6.82467 8.43682 6.89791 8.45139 6.96624 8.47969C7.03457 8.50799 7.09666 8.54948 7.14896 8.60178L8.43821 9.89215L11.415 6.91428C11.4672 6.86189 11.5293 6.82033 11.5976 6.79198C11.666 6.76362 11.7392 6.74902 11.8132 6.74902C11.8872 6.74902 11.9605 6.76362 12.0288 6.79198C12.0971 6.82033 12.1592 6.86189 12.2115 6.91428V6.91428Z" fill="#81FBA5"/>
</svg>
