<svg width="18" height="18" viewBox="0 0 18 18" fill="none" xmlns="http://www.w3.org/2000/svg">
<path fill-rule="evenodd" clip-rule="evenodd" d="M9.0028 12.7507C6.93054 12.7507 5.25129 11.0707 5.25129 8.99924C5.25129 6.92696 6.93054 5.24771 9.0028 5.24771C11.0751 5.24771 12.7543 6.92696 12.7543 8.99924C12.7543 11.0707 11.0751 12.7507 9.0028 12.7507ZM15.2788 10.413C14.6916 10.209 14.2693 9.65624 14.2693 8.99924C14.2693 8.34224 14.6916 7.78949 15.2781 7.58549C15.4558 7.52399 15.5653 7.33571 15.5143 7.15496C15.3651 6.62696 15.1528 6.12671 14.8873 5.66021C14.7988 5.50421 14.6046 5.44646 14.4388 5.51396C14.1501 5.63246 13.8163 5.66321 13.4706 5.57471C12.9651 5.44421 12.5518 5.03246 12.4183 4.52771C12.3268 4.18046 12.3576 3.84521 12.4753 3.55496C12.5421 3.38996 12.4843 3.19571 12.3283 3.10721C11.8656 2.84546 11.3691 2.63546 10.8471 2.48771C10.6656 2.43671 10.4781 2.54546 10.4166 2.72321C10.2126 3.31046 9.6598 3.73271 9.0028 3.73271C8.34655 3.73271 7.79305 3.31046 7.5898 2.72396C7.52755 2.54621 7.33929 2.43671 7.15854 2.48771C6.62754 2.63771 6.12429 2.85146 5.65554 3.11921C5.50479 3.20546 5.44104 3.39446 5.50704 3.55571C5.61729 3.82646 5.65104 4.13546 5.58054 4.45796C5.46429 4.98746 5.04504 5.43071 4.52079 5.57096C4.17729 5.66321 3.84729 5.63396 3.56079 5.51996C3.39579 5.45396 3.20229 5.51246 3.11454 5.66696C2.84979 6.13346 2.63829 6.63446 2.48979 7.16246C2.43879 7.34171 2.54604 7.52774 2.72079 7.59149C3.29904 7.79999 3.71304 8.34899 3.71304 8.99924C3.71304 9.64949 3.29904 10.1985 2.72004 10.407C2.54529 10.47 2.43879 10.656 2.48904 10.8352C2.62179 11.3055 2.80554 11.7547 3.03129 12.1777C3.12054 12.3442 3.32754 12.4012 3.49929 12.3225C3.94554 12.1177 4.50654 12.1245 5.07729 12.501C5.16504 12.5587 5.24604 12.6397 5.30379 12.7267C5.69904 13.326 5.68779 13.9117 5.45229 14.367C5.36604 14.5342 5.41629 14.7427 5.57829 14.838C6.06879 15.126 6.59979 15.3532 7.16004 15.5107C7.34079 15.5617 7.5268 15.4537 7.58755 15.276C7.7893 14.6865 8.3443 14.2612 9.0028 14.2612C9.6613 14.2612 10.2163 14.6865 10.4181 15.276C10.4788 15.453 10.6648 15.5617 10.8456 15.5107C11.3983 15.3555 11.9226 15.1312 12.4086 14.8485C12.5721 14.7532 12.6216 14.5425 12.5338 14.3752C12.2953 13.9192 12.2811 13.3305 12.6771 12.729C12.7348 12.642 12.8158 12.5602 12.9036 12.5025C13.4826 12.1192 14.0488 12.1177 14.4973 12.33C14.6691 12.411 14.8783 12.3547 14.9683 12.1875C15.1963 11.7645 15.3801 11.3145 15.5143 10.8427C15.5653 10.662 15.4566 10.4745 15.2788 10.413Z" fill="#81FBA5"/>
</svg>
