<svg width="18" height="18" viewBox="0 0 18 18" fill="none" xmlns="http://www.w3.org/2000/svg">
<path fill-rule="evenodd" clip-rule="evenodd" d="M9.00203 12.6736C6.97249 12.6736 5.32786 11.0283 5.32786 8.99948C5.32786 6.96993 6.97249 5.3253 9.00203 5.3253C11.0316 5.3253 12.6762 6.96993 12.6762 8.99948C12.6762 11.0283 11.0316 12.6736 9.00203 12.6736ZM15.1486 10.3841C14.5735 10.1843 14.1599 9.64294 14.1599 8.99948C14.1599 8.35603 14.5735 7.81468 15.1479 7.61488C15.322 7.55465 15.4292 7.37025 15.3793 7.19323C15.2331 6.67612 15.0252 6.18618 14.7652 5.7293C14.6785 5.57652 14.4883 5.51996 14.3259 5.58606C14.0431 5.70212 13.7163 5.73224 13.3777 5.64556C12.8826 5.51775 12.4779 5.11449 12.3471 4.62015C12.2575 4.28006 12.2876 3.95172 12.4029 3.66746C12.4683 3.50586 12.4117 3.31561 12.259 3.22894C11.8058 2.97258 11.3195 2.76691 10.8083 2.62221C10.6305 2.57226 10.4469 2.67877 10.3866 2.85286C10.1868 3.428 9.64548 3.84154 9.00203 3.84154C8.35931 3.84154 7.81722 3.428 7.61816 2.85359C7.5572 2.67951 7.37281 2.57226 7.19579 2.62221C6.67574 2.76912 6.18286 2.97846 5.72378 3.24069C5.57614 3.32516 5.5137 3.51027 5.57834 3.66819C5.68632 3.93336 5.71937 4.23599 5.65033 4.55184C5.53647 5.07042 5.12587 5.50453 4.61243 5.64189C4.27601 5.73224 3.95281 5.70359 3.67222 5.59194C3.51062 5.5273 3.32111 5.58459 3.23517 5.73591C2.97588 6.19279 2.76874 6.68346 2.6233 7.20057C2.57335 7.37613 2.67839 7.55832 2.84954 7.62076C3.41587 7.82496 3.82133 8.36264 3.82133 8.99948C3.82133 9.63633 3.41587 10.174 2.8488 10.3782C2.67766 10.4399 2.57335 10.6221 2.62257 10.7976C2.75258 11.2582 2.93254 11.6982 3.15364 12.1124C3.24105 12.2755 3.44378 12.3313 3.61199 12.2542C4.04904 12.0537 4.59847 12.0603 5.15745 12.429C5.24339 12.4856 5.32272 12.5649 5.37928 12.6501C5.76638 13.237 5.75536 13.8107 5.52472 14.2566C5.44025 14.4204 5.48946 14.6246 5.64812 14.7178C6.12851 14.9999 6.64856 15.2225 7.19726 15.3767C7.37428 15.4267 7.55646 15.3209 7.61596 15.1468C7.81355 14.5695 8.35711 14.153 9.00203 14.153C9.64695 14.153 10.1905 14.5695 10.3881 15.1468C10.4476 15.3202 10.6298 15.4267 10.8068 15.3767C11.3481 15.2247 11.8616 15.005 12.3376 14.7281C12.4977 14.6348 12.5462 14.4284 12.4602 14.2646C12.2266 13.818 12.2127 13.2414 12.6005 12.6523C12.6571 12.5671 12.7364 12.4871 12.8223 12.4305C13.3894 12.0552 13.944 12.0537 14.3832 12.2616C14.5514 12.3409 14.7564 12.2858 14.8445 12.122C15.0678 11.7077 15.2478 11.267 15.3793 10.805C15.4292 10.6279 15.3227 10.4443 15.1486 10.3841Z" fill="white"/>
</svg>
