<svg width="24" height="24" viewBox="0 0 24 24" fill="none" xmlns="http://www.w3.org/2000/svg">
<path fill-rule="evenodd" clip-rule="evenodd" d="M12.0015 17.0009C9.23844 17.0009 6.99944 14.7609 6.99944 11.9989C6.99944 9.23586 9.23844 6.99686 12.0015 6.99686C14.7645 6.99686 17.0035 9.23586 17.0035 11.9989C17.0035 14.7609 14.7645 17.0009 12.0015 17.0009ZM20.3695 13.8839C19.5865 13.6119 19.0235 12.8749 19.0235 11.9989C19.0235 11.1229 19.5865 10.3859 20.3685 10.1139C20.6055 10.0319 20.7515 9.78086 20.6835 9.53986C20.4845 8.83586 20.2015 8.16886 19.8475 7.54686C19.7295 7.33886 19.4705 7.26186 19.2495 7.35186C18.8645 7.50986 18.4195 7.55086 17.9585 7.43286C17.2845 7.25886 16.7335 6.70986 16.5555 6.03686C16.4335 5.57386 16.4745 5.12686 16.6315 4.73986C16.7205 4.51986 16.6435 4.26086 16.4355 4.14286C15.8185 3.79386 15.1565 3.51386 14.4605 3.31686C14.2185 3.24886 13.9685 3.39386 13.8865 3.63086C13.6145 4.41386 12.8775 4.97686 12.0015 4.97686C11.1265 4.97686 10.3885 4.41386 10.1175 3.63186C10.0345 3.39486 9.78344 3.24886 9.54244 3.31686C8.83444 3.51686 8.16344 3.80186 7.53844 4.15886C7.33744 4.27386 7.25244 4.52586 7.34044 4.74086C7.48744 5.10186 7.53244 5.51386 7.43844 5.94386C7.28344 6.64986 6.72444 7.24086 6.02544 7.42786C5.56744 7.55086 5.12744 7.51186 4.74544 7.35986C4.52544 7.27186 4.26744 7.34986 4.15044 7.55586C3.79744 8.17786 3.51544 8.84586 3.31744 9.54986C3.24944 9.78886 3.39244 10.0369 3.62544 10.1219C4.39644 10.3999 4.94844 11.1319 4.94844 11.9989C4.94844 12.8659 4.39644 13.5979 3.62444 13.8759C3.39144 13.9599 3.24944 14.2079 3.31644 14.4469C3.49344 15.0739 3.73844 15.6729 4.03944 16.2369C4.15844 16.4589 4.43444 16.5349 4.66344 16.4299C5.25844 16.1569 6.00644 16.1659 6.76744 16.6679C6.88444 16.7449 6.99244 16.8529 7.06944 16.9689C7.59644 17.7679 7.58144 18.5489 7.26744 19.1559C7.15244 19.3789 7.21944 19.6569 7.43544 19.7839C8.08944 20.1679 8.79744 20.4709 9.54444 20.6809C9.78544 20.7489 10.0335 20.6049 10.1145 20.3679C10.3835 19.5819 11.1235 19.0149 12.0015 19.0149C12.8795 19.0149 13.6195 19.5819 13.8885 20.3679C13.9695 20.6039 14.2175 20.7489 14.4585 20.6809C15.1955 20.4739 15.8945 20.1749 16.5425 19.7979C16.7605 19.6709 16.8265 19.3899 16.7095 19.1669C16.3915 18.5589 16.3725 17.7739 16.9005 16.9719C16.9775 16.8559 17.0855 16.7469 17.2025 16.6699C17.9745 16.1589 18.7295 16.1569 19.3275 16.4399C19.5565 16.5479 19.8355 16.4729 19.9555 16.2499C20.2595 15.6859 20.5045 15.0859 20.6835 14.4569C20.7515 14.2159 20.6065 13.9659 20.3695 13.8839Z" fill="white"/>
</svg>
