<svg width="669" height="482" viewBox="0 0 669 482" fill="none" xmlns="http://www.w3.org/2000/svg">
<g clip-path="url(#clip0_1317_1550)">
<path d="M17.7156 480.038C17.7156 480.625 18.1873 481.097 18.7748 481.097H667.923C668.511 481.097 668.982 480.625 668.982 480.038C668.982 479.45 668.511 478.978 667.923 478.978H18.7748C18.1873 478.978 17.7156 479.45 17.7156 480.038Z" fill="#3F3D58"/>
<path d="M225.583 85.6476H17.3864C9.44657 85.6476 2.98438 79.1854 2.98438 71.2456C2.98438 63.3058 9.44657 56.8436 17.3864 56.8436H225.583C233.523 56.8436 239.985 63.3058 239.985 71.2456C239.985 79.1854 233.523 85.6476 225.583 85.6476ZM17.3864 58.6238C10.4257 58.6238 4.7646 64.2849 4.7646 71.2456C4.7646 78.2063 10.4257 83.8674 17.3864 83.8674H225.583C232.544 83.8674 238.205 78.2063 238.205 71.2456C238.205 64.2849 232.544 58.6238 225.583 58.6238H17.3864Z" fill="#231F20"/>
<path d="M225.583 254.19H17.3864C9.68692 254.19 3.42944 247.933 3.42944 240.233C3.42944 232.534 9.68692 226.276 17.3864 226.276H225.583C233.283 226.276 239.54 232.534 239.54 240.233C239.54 247.933 233.283 254.19 225.583 254.19Z" fill="#81FBA5"/>
<path d="M157.356 28.8675H13.9594C6.25992 28.8675 0.00244141 22.61 0.00244141 14.9105C0.00244141 7.21109 6.25992 0.953613 13.9594 0.953613H157.356C165.056 0.953613 171.313 7.21109 171.313 14.9105C171.313 22.61 165.056 28.8675 157.356 28.8675Z" fill="#231F20"/>
<path d="M225.583 141.974H17.3864C9.44657 141.974 2.98438 135.511 2.98438 127.572C2.98438 119.632 9.44657 113.17 17.3864 113.17H225.583C233.523 113.17 239.985 119.632 239.985 127.572C239.985 135.511 233.523 141.974 225.583 141.974ZM17.3864 114.95C10.4257 114.95 4.7646 120.611 4.7646 127.572C4.7646 134.532 10.4257 140.193 17.3864 140.193H225.583C232.544 140.193 238.205 134.532 238.205 127.572C238.205 120.611 232.544 114.95 225.583 114.95H17.3864Z" fill="#231F20"/>
<path d="M225.583 198.309H17.3864C9.44657 198.309 2.98438 191.847 2.98438 183.907C2.98438 175.967 9.44657 169.505 17.3864 169.505H225.583C233.523 169.505 239.985 175.967 239.985 183.907C239.985 191.847 233.523 198.309 225.583 198.309ZM17.3864 171.285C10.4257 171.285 4.7646 176.946 4.7646 183.907C4.7646 190.868 10.4257 196.529 17.3864 196.529H225.583C232.544 196.529 238.205 190.868 238.205 183.907C238.205 176.946 232.544 171.285 225.583 171.285H17.3864Z" fill="#231F20"/>
<path d="M10.2299 46.5006H64.7936C66.0932 46.5006 67.1524 47.5509 67.1524 48.8594C67.1524 50.159 66.0932 51.2182 64.7936 51.2182H10.2299C8.93032 51.2182 7.87109 50.1679 7.87109 48.8594C7.87109 47.5598 8.93032 46.5006 10.2299 46.5006Z" fill="#231F20"/>
<path d="M10.2299 104.162H64.7936C66.0932 104.162 67.1524 105.212 67.1524 106.512C67.1524 107.811 66.0932 108.87 64.7936 108.87H10.2299C8.93032 108.87 7.87109 107.82 7.87109 106.521C7.87109 105.221 8.93032 104.162 10.2299 104.162Z" fill="#231F20"/>
<path d="M10.2299 161.832H64.7936C66.0932 161.832 67.1524 162.882 67.1524 164.191C67.1524 165.49 66.0932 166.541 64.7936 166.541H10.2299C8.93032 166.541 7.87109 165.49 7.87109 164.182C7.87109 162.882 8.93032 161.832 10.2299 161.832Z" fill="#231F20"/>
<path d="M397.953 118.68L378.05 125.231V96.5781H396.11L397.953 118.68Z" fill="#9F616A"/>
<path d="M380.515 104.509C391.468 104.509 400.347 95.6301 400.347 84.6774C400.347 73.7246 391.468 64.8457 380.515 64.8457C369.563 64.8457 360.684 73.7246 360.684 84.6774C360.684 95.6301 369.563 104.509 380.515 104.509Z" fill="#9F616A"/>
<path d="M385.963 82.7103C382.643 82.6124 380.462 79.2567 379.171 76.1947C377.881 73.1328 376.555 69.6168 373.475 68.3529C370.956 67.3203 366.514 74.3077 364.529 72.4474C362.455 70.5069 364.476 60.5466 366.674 58.7575C368.873 56.9684 371.881 56.6212 374.712 56.4877C381.619 56.1673 388.571 56.728 395.345 58.1433C399.537 59.0156 403.845 60.333 406.872 63.3594C410.699 67.2046 411.678 72.9992 411.954 78.42C412.239 83.9654 411.919 89.7689 409.222 94.62C406.525 99.4711 400.881 103.049 395.469 101.812C394.926 98.8747 395.478 95.8573 395.692 92.8665C395.897 89.8846 395.683 86.6624 393.858 84.2858C392.042 81.9092 388.144 80.9657 386.025 83.0753" fill="#2F2E43"/>
<path d="M410.361 89.5818C412.346 88.1309 414.723 86.9115 417.161 87.2141C419.796 87.5345 422.03 89.7064 422.707 92.2788C423.383 94.8512 422.627 97.6818 420.989 99.7824C419.36 101.883 416.93 103.272 414.366 103.966C412.88 104.367 411.251 104.536 409.836 103.93C407.753 103.031 406.623 100.37 407.441 98.2514" fill="#2F2E43"/>
<path d="M334.47 276.176C333.144 282.691 335.574 288.646 339.882 289.474C344.19 290.302 348.756 285.682 350.074 279.167C350.634 276.567 350.545 273.879 349.815 271.316L366.22 169.176L345.703 165.313L337.781 269.01C336.099 271.111 334.968 273.568 334.47 276.185V276.176Z" fill="#9F616A"/>
<path d="M377.836 112.084H363.834C353.936 113.588 351.248 118.866 348.996 128.622C345.56 143.505 341.172 163.319 342.044 163.612C343.442 164.075 367.279 175.291 379.429 172.727L377.836 112.084Z" fill="#81FBA5"/>
<path d="M391.375 437.428H372.736V463.873H391.375V437.428Z" fill="#9F616A"/>
<path d="M354.587 479.877C352.628 479.877 350.884 479.833 349.566 479.708C344.617 479.254 339.891 475.596 337.514 473.46C336.446 472.498 336.108 470.967 336.66 469.65C337.06 468.706 337.853 467.994 338.841 467.718L351.925 463.98L373.11 449.685L373.35 450.112C373.439 450.272 375.522 454.02 376.216 456.548C376.483 457.509 376.412 458.31 376.012 458.933C375.736 459.36 375.344 459.61 375.032 459.752C375.415 460.153 376.617 460.971 380.32 461.559C385.723 462.413 386.862 456.815 386.907 456.583L386.942 456.396L387.102 456.289C389.675 454.634 391.259 453.877 391.802 454.037C392.14 454.135 392.71 454.313 394.25 469.561C394.401 470.042 395.478 473.549 394.748 476.904C393.956 480.554 378.005 479.299 374.81 479.014C374.721 479.023 362.776 479.877 354.596 479.877H354.587Z" fill="#2F2E43"/>
<path d="M444.449 416.651L428.633 426.514L442.628 448.953L458.443 439.09L444.449 416.651Z" fill="#9F616A"/>
<path d="M423.445 476.254C421.256 476.254 419.244 475.987 417.811 475.738C416.405 475.489 415.301 474.367 415.069 472.961C414.909 471.946 415.203 470.923 415.897 470.166L425.021 460.072L435.435 436.734L435.862 436.965C436.023 437.054 439.77 439.128 441.701 440.908C442.44 441.585 442.805 442.306 442.787 443.044C442.778 443.561 442.583 443.97 442.387 444.264C442.921 444.406 444.372 444.46 447.825 443C452.863 440.873 450.87 435.514 450.781 435.292L450.709 435.114L450.789 434.944C452.098 432.176 453.033 430.699 453.584 430.547C453.932 430.449 454.501 430.298 463.874 442.43C464.257 442.751 467.025 445.163 468.182 448.394C469.437 451.91 455.24 459.289 452.383 460.731C452.294 460.802 437.438 471.599 431.332 474.67C428.911 475.89 426.044 476.263 423.436 476.263L423.445 476.254Z" fill="#2F2E43"/>
<path d="M405.1 216.28H352.913L348.178 264.827L368.899 444.202H395.54L384.886 340.602L428.101 434.135L451.778 417.561L418.034 330.241C418.034 330.241 430.086 254.172 420.615 235.222C411.144 216.28 405.1 216.28 405.1 216.28Z" fill="#2F2E43"/>
<path d="M431.065 219.235H348.178L373.047 112.084H409.159L431.065 219.235Z" fill="#81FBA5"/>
<path d="M438.524 276.176C439.85 282.691 437.42 288.646 433.112 289.474C428.804 290.302 424.238 285.682 422.92 279.167C422.36 276.567 422.449 273.879 423.178 271.316L406.774 169.176L427.291 165.313L435.213 269.01C436.895 271.111 438.025 273.568 438.524 276.185V276.176Z" fill="#9F616A"/>
<path d="M395.158 112.084H409.159C419.057 113.588 421.745 118.866 423.997 128.622C427.433 143.505 431.821 163.319 430.949 163.612C429.551 164.075 405.714 175.291 393.564 172.727L395.158 112.084Z" fill="#81FBA5"/>
</g>
<defs>
<clipPath id="clip0_1317_1550">
<rect width="668.98" height="480.143" fill="white" transform="translate(0.00244141 0.953613)"/>
</clipPath>
</defs>
</svg>
