<svg width="18" height="18" viewBox="0 0 18 18" fill="none" xmlns="http://www.w3.org/2000/svg">
<g clip-path="url(#clip0_1900_1854)">
<path d="M8.99998 17.8144C4.15204 17.8144 0.185547 13.8479 0.185547 8.99998C0.185547 4.15204 4.15204 0.185547 8.99998 0.185547C13.8479 0.185547 17.8144 4.15204 17.8144 8.99998C17.8144 13.8479 13.8479 17.8144 8.99998 17.8144ZM8.99998 1.28735C4.75803 1.28735 1.28735 4.75803 1.28735 8.99998C1.28735 13.2419 4.75803 16.7126 8.99998 16.7126C13.2419 16.7126 16.7126 13.2419 16.7126 8.99998C16.7126 4.75803 13.2419 1.28735 8.99998 1.28735ZM7.29218 12.6359C7.12691 12.6359 7.01673 12.5808 6.90655 12.4707L4.75803 10.3221C4.59276 10.1018 4.59276 9.77124 4.75803 9.55088C4.9233 9.33052 5.30894 9.33052 5.5293 9.55088L7.23709 11.2587L11.9748 6.52092C12.1952 6.30056 12.5258 6.30056 12.7461 6.52092C12.9665 6.74128 12.9665 7.07182 12.7461 7.29218L7.56763 12.4707C7.56763 12.5808 7.45745 12.6359 7.29218 12.6359Z" fill="white"/>
</g>
<defs>
<clipPath id="clip0_1900_1854">
<rect width="17.6289" height="17.6289" fill="white" transform="translate(0.185547 0.185547)"/>
</clipPath>
</defs>
</svg>
