<svg width="24" height="24" viewBox="0 0 24 24" fill="none" xmlns="http://www.w3.org/2000/svg">
<path d="M3 17V7C3 6.45 3.19583 5.97917 3.5875 5.5875C3.97917 5.19583 4.45 5 5 5H19C19.55 5 20.0208 5.19583 20.4125 5.5875C20.8042 5.97917 21 6.45 21 7V17C21 17.55 20.8042 18.0208 20.4125 18.4125C20.0208 18.8042 19.55 19 19 19H5C4.45 19 3.97917 18.8042 3.5875 18.4125C3.19583 18.0208 3 17.55 3 17ZM10.325 11H19V7H10.325V11ZM15.675 17H19V13H15.675V17ZM10.325 17H13.675V13H10.325V17ZM5 17H8.325V7H5V17Z" fill="#0B0B0B" fill-opacity="0.3"/>
<path d="M10.3125 11V11.0125H10.325H19H19.0125V11V7V6.9875H19H10.325H10.3125V7V11ZM15.6625 17V17.0125H15.675H19H19.0125V17V13V12.9875H19H15.675H15.6625V13V17ZM10.3125 17V17.0125H10.325H13.675H13.6875V17V13V12.9875H13.675H10.325H10.3125V13V17ZM4.9875 17V17.0125H5H8.325H8.3375V17V7V6.9875H8.325H5H4.9875V7V17ZM3.0125 17V7C3.0125 6.45334 3.207 5.98568 3.59634 5.59634C3.98568 5.207 4.45334 5.0125 5 5.0125H19C19.5467 5.0125 20.0143 5.207 20.4037 5.59634C20.793 5.98568 20.9875 6.45334 20.9875 7V17C20.9875 17.5467 20.793 18.0143 20.4037 18.4037C20.0143 18.793 19.5467 18.9875 19 18.9875H5C4.45334 18.9875 3.98568 18.793 3.59634 18.4037C3.207 18.0143 3.0125 17.5467 3.0125 17Z" stroke="#0B0B0B" stroke-opacity="0.3" stroke-width="0.025"/>
</svg>
